<mxfile host="app.diagrams.net" agent="Mozilla/5.0 (Windows NT 10.0; Win64; x64) AppleWebKit/537.36 (KHTML, like Gecko) Chrome/141.0.0.0 Safari/537.36" version="28.2.5">
  <diagram name="Página-1" id="s8RFKE8Slnl_227uzsYh">
    <mxGraphModel dx="1426" dy="1946" grid="1" gridSize="10" guides="1" tooltips="1" connect="1" arrows="1" fold="1" page="1" pageScale="1" pageWidth="827" pageHeight="1169" math="0" shadow="0">
      <root>
        <mxCell id="0" />
        <mxCell id="1" parent="0" />
        <mxCell id="7XiOjSr3929bPCMhmyme-3" value="" style="edgeStyle=orthogonalEdgeStyle;rounded=0;orthogonalLoop=1;jettySize=auto;html=1;" parent="1" source="7XiOjSr3929bPCMhmyme-1" edge="1">
          <mxGeometry relative="1" as="geometry">
            <mxPoint x="120" y="40" as="targetPoint" />
          </mxGeometry>
        </mxCell>
        <mxCell id="7XiOjSr3929bPCMhmyme-1" value="Incio" style="ellipse;whiteSpace=wrap;html=1;" parent="1" vertex="1">
          <mxGeometry width="80" height="80" as="geometry" />
        </mxCell>
        <mxCell id="IGWFoSoRFDXE1sSzDMoK-4" value="" style="edgeStyle=orthogonalEdgeStyle;rounded=0;orthogonalLoop=1;jettySize=auto;html=1;" parent="1" source="7XiOjSr3929bPCMhmyme-4" target="IGWFoSoRFDXE1sSzDMoK-1" edge="1">
          <mxGeometry relative="1" as="geometry" />
        </mxCell>
        <mxCell id="7XiOjSr3929bPCMhmyme-4" value="Ler N" style="shape=parallelogram;perimeter=parallelogramPerimeter;whiteSpace=wrap;html=1;fixedSize=1;rounded=0;" parent="1" vertex="1">
          <mxGeometry x="110" y="10" width="210" height="60" as="geometry" />
        </mxCell>
        <mxCell id="7XiOjSr3929bPCMhmyme-16" value="Fim" style="ellipse;whiteSpace=wrap;html=1;" parent="1" vertex="1">
          <mxGeometry x="350" y="220" width="80" height="80" as="geometry" />
        </mxCell>
        <mxCell id="IGWFoSoRFDXE1sSzDMoK-5" value="" style="edgeStyle=orthogonalEdgeStyle;rounded=0;orthogonalLoop=1;jettySize=auto;html=1;" parent="1" source="IGWFoSoRFDXE1sSzDMoK-1" target="IGWFoSoRFDXE1sSzDMoK-3" edge="1">
          <mxGeometry relative="1" as="geometry" />
        </mxCell>
        <mxCell id="IGWFoSoRFDXE1sSzDMoK-8" value="" style="edgeStyle=orthogonalEdgeStyle;rounded=0;orthogonalLoop=1;jettySize=auto;html=1;" parent="1" source="IGWFoSoRFDXE1sSzDMoK-1" target="IGWFoSoRFDXE1sSzDMoK-3" edge="1">
          <mxGeometry relative="1" as="geometry" />
        </mxCell>
        <mxCell id="IGWFoSoRFDXE1sSzDMoK-12" value="Sim" style="edgeLabel;html=1;align=center;verticalAlign=middle;resizable=0;points=[];" parent="IGWFoSoRFDXE1sSzDMoK-8" vertex="1" connectable="0">
          <mxGeometry x="-0.45" y="-1" relative="1" as="geometry">
            <mxPoint as="offset" />
          </mxGeometry>
        </mxCell>
        <mxCell id="IGWFoSoRFDXE1sSzDMoK-14" value="" style="edgeStyle=orthogonalEdgeStyle;rounded=0;orthogonalLoop=1;jettySize=auto;html=1;" parent="1" source="IGWFoSoRFDXE1sSzDMoK-1" target="IGWFoSoRFDXE1sSzDMoK-13" edge="1">
          <mxGeometry relative="1" as="geometry" />
        </mxCell>
        <mxCell id="IGWFoSoRFDXE1sSzDMoK-1" value="N == 0" style="rhombus;whiteSpace=wrap;html=1;" parent="1" vertex="1">
          <mxGeometry x="350" width="80" height="80" as="geometry" />
        </mxCell>
        <mxCell id="IGWFoSoRFDXE1sSzDMoK-6" value="" style="edgeStyle=orthogonalEdgeStyle;rounded=0;orthogonalLoop=1;jettySize=auto;html=1;" parent="1" source="IGWFoSoRFDXE1sSzDMoK-3" target="7XiOjSr3929bPCMhmyme-16" edge="1">
          <mxGeometry relative="1" as="geometry" />
        </mxCell>
        <mxCell id="IGWFoSoRFDXE1sSzDMoK-3" value="Escrever &quot;Escreveste 0 - Saíste&quot;" style="shape=parallelogram;perimeter=parallelogramPerimeter;whiteSpace=wrap;html=1;fixedSize=1;" parent="1" vertex="1">
          <mxGeometry x="285" y="120" width="210" height="60" as="geometry" />
        </mxCell>
        <mxCell id="IGWFoSoRFDXE1sSzDMoK-16" value="" style="edgeStyle=orthogonalEdgeStyle;rounded=0;orthogonalLoop=1;jettySize=auto;html=1;" parent="1" source="IGWFoSoRFDXE1sSzDMoK-13" target="IGWFoSoRFDXE1sSzDMoK-15" edge="1">
          <mxGeometry relative="1" as="geometry" />
        </mxCell>
        <mxCell id="IGWFoSoRFDXE1sSzDMoK-17" value="Sim" style="edgeLabel;html=1;align=center;verticalAlign=middle;resizable=0;points=[];" parent="IGWFoSoRFDXE1sSzDMoK-16" vertex="1" connectable="0">
          <mxGeometry x="-0.6444" relative="1" as="geometry">
            <mxPoint as="offset" />
          </mxGeometry>
        </mxCell>
        <mxCell id="IGWFoSoRFDXE1sSzDMoK-19" value="" style="edgeStyle=orthogonalEdgeStyle;rounded=0;orthogonalLoop=1;jettySize=auto;html=1;" parent="1" source="IGWFoSoRFDXE1sSzDMoK-13" target="IGWFoSoRFDXE1sSzDMoK-18" edge="1">
          <mxGeometry relative="1" as="geometry" />
        </mxCell>
        <mxCell id="jhZyTHYO_S4LA-YkZrnm-1" value="Não" style="edgeLabel;html=1;align=center;verticalAlign=middle;resizable=0;points=[];" vertex="1" connectable="0" parent="IGWFoSoRFDXE1sSzDMoK-19">
          <mxGeometry x="-0.04" y="3" relative="1" as="geometry">
            <mxPoint as="offset" />
          </mxGeometry>
        </mxCell>
        <mxCell id="IGWFoSoRFDXE1sSzDMoK-13" value="N mod 5 == 0" style="rhombus;whiteSpace=wrap;html=1;" parent="1" vertex="1">
          <mxGeometry x="510" y="-5" width="90" height="90" as="geometry" />
        </mxCell>
        <mxCell id="IGWFoSoRFDXE1sSzDMoK-21" value="" style="edgeStyle=orthogonalEdgeStyle;rounded=0;orthogonalLoop=1;jettySize=auto;html=1;" parent="1" source="IGWFoSoRFDXE1sSzDMoK-15" target="IGWFoSoRFDXE1sSzDMoK-20" edge="1">
          <mxGeometry relative="1" as="geometry" />
        </mxCell>
        <mxCell id="IGWFoSoRFDXE1sSzDMoK-29" value="Sim" style="edgeLabel;html=1;align=center;verticalAlign=middle;resizable=0;points=[];" parent="IGWFoSoRFDXE1sSzDMoK-21" vertex="1" connectable="0">
          <mxGeometry x="0.6333" y="1" relative="1" as="geometry">
            <mxPoint as="offset" />
          </mxGeometry>
        </mxCell>
        <mxCell id="IGWFoSoRFDXE1sSzDMoK-27" value="" style="edgeStyle=orthogonalEdgeStyle;rounded=0;orthogonalLoop=1;jettySize=auto;html=1;" parent="1" source="IGWFoSoRFDXE1sSzDMoK-15" edge="1">
          <mxGeometry relative="1" as="geometry">
            <mxPoint x="645" y="165" as="targetPoint" />
          </mxGeometry>
        </mxCell>
        <mxCell id="IGWFoSoRFDXE1sSzDMoK-30" value="Não" style="edgeLabel;html=1;align=center;verticalAlign=middle;resizable=0;points=[];" parent="IGWFoSoRFDXE1sSzDMoK-27" vertex="1" connectable="0">
          <mxGeometry x="-0.0667" y="4" relative="1" as="geometry">
            <mxPoint as="offset" />
          </mxGeometry>
        </mxCell>
        <mxCell id="IGWFoSoRFDXE1sSzDMoK-15" value="N mod 3 == 0" style="rhombus;whiteSpace=wrap;html=1;" parent="1" vertex="1">
          <mxGeometry x="510" y="120" width="90" height="90" as="geometry" />
        </mxCell>
        <mxCell id="IGWFoSoRFDXE1sSzDMoK-25" value="" style="edgeStyle=orthogonalEdgeStyle;rounded=0;orthogonalLoop=1;jettySize=auto;html=1;" parent="1" source="IGWFoSoRFDXE1sSzDMoK-18" target="IGWFoSoRFDXE1sSzDMoK-24" edge="1">
          <mxGeometry relative="1" as="geometry" />
        </mxCell>
        <mxCell id="jhZyTHYO_S4LA-YkZrnm-4" value="Sim" style="edgeLabel;html=1;align=center;verticalAlign=middle;resizable=0;points=[];" vertex="1" connectable="0" parent="IGWFoSoRFDXE1sSzDMoK-25">
          <mxGeometry x="0.4" y="-4" relative="1" as="geometry">
            <mxPoint as="offset" />
          </mxGeometry>
        </mxCell>
        <mxCell id="jhZyTHYO_S4LA-YkZrnm-6" style="edgeStyle=orthogonalEdgeStyle;rounded=0;orthogonalLoop=1;jettySize=auto;html=1;exitX=0.5;exitY=1;exitDx=0;exitDy=0;entryX=0;entryY=0.5;entryDx=0;entryDy=0;" edge="1" parent="1" source="IGWFoSoRFDXE1sSzDMoK-18" target="jhZyTHYO_S4LA-YkZrnm-5">
          <mxGeometry relative="1" as="geometry" />
        </mxCell>
        <mxCell id="jhZyTHYO_S4LA-YkZrnm-7" value="Não" style="edgeLabel;html=1;align=center;verticalAlign=middle;resizable=0;points=[];" vertex="1" connectable="0" parent="jhZyTHYO_S4LA-YkZrnm-6">
          <mxGeometry x="-0.0519" y="1" relative="1" as="geometry">
            <mxPoint as="offset" />
          </mxGeometry>
        </mxCell>
        <mxCell id="IGWFoSoRFDXE1sSzDMoK-18" value="N mod 3 == 0" style="rhombus;whiteSpace=wrap;html=1;" parent="1" vertex="1">
          <mxGeometry x="650" y="-5" width="90" height="90" as="geometry" />
        </mxCell>
        <mxCell id="IGWFoSoRFDXE1sSzDMoK-32" style="edgeStyle=orthogonalEdgeStyle;rounded=0;orthogonalLoop=1;jettySize=auto;html=1;entryX=0.5;entryY=0;entryDx=0;entryDy=0;" parent="1" source="IGWFoSoRFDXE1sSzDMoK-20" target="7XiOjSr3929bPCMhmyme-4" edge="1">
          <mxGeometry relative="1" as="geometry">
            <Array as="points">
              <mxPoint x="1020" y="260" />
              <mxPoint x="1020" y="-10" />
              <mxPoint x="215" y="-10" />
            </Array>
          </mxGeometry>
        </mxCell>
        <mxCell id="IGWFoSoRFDXE1sSzDMoK-20" value="Escrever &quot;O número é multiplo de 3 e 5" style="shape=parallelogram;perimeter=parallelogramPerimeter;whiteSpace=wrap;html=1;fixedSize=1;" parent="1" vertex="1">
          <mxGeometry x="487.5" y="230" width="135" height="60" as="geometry" />
        </mxCell>
        <mxCell id="IGWFoSoRFDXE1sSzDMoK-34" style="edgeStyle=orthogonalEdgeStyle;rounded=0;orthogonalLoop=1;jettySize=auto;html=1;exitX=1;exitY=0.5;exitDx=0;exitDy=0;entryX=0.5;entryY=0;entryDx=0;entryDy=0;" parent="1" source="IGWFoSoRFDXE1sSzDMoK-24" target="7XiOjSr3929bPCMhmyme-4" edge="1">
          <mxGeometry relative="1" as="geometry">
            <Array as="points">
              <mxPoint x="1020" y="40" />
              <mxPoint x="1020" y="-10" />
              <mxPoint x="215" y="-10" />
            </Array>
          </mxGeometry>
        </mxCell>
        <mxCell id="IGWFoSoRFDXE1sSzDMoK-24" value="Escrever &quot;O número é multiplo de 3." style="shape=parallelogram;perimeter=parallelogramPerimeter;whiteSpace=wrap;html=1;fixedSize=1;" parent="1" vertex="1">
          <mxGeometry x="770" y="10" width="160" height="60" as="geometry" />
        </mxCell>
        <mxCell id="IGWFoSoRFDXE1sSzDMoK-33" style="edgeStyle=orthogonalEdgeStyle;rounded=0;orthogonalLoop=1;jettySize=auto;html=1;entryX=0.5;entryY=0;entryDx=0;entryDy=0;" parent="1" source="IGWFoSoRFDXE1sSzDMoK-28" target="7XiOjSr3929bPCMhmyme-4" edge="1">
          <mxGeometry relative="1" as="geometry">
            <Array as="points">
              <mxPoint x="1020" y="165" />
              <mxPoint x="1020" y="-10" />
              <mxPoint x="215" y="-10" />
            </Array>
          </mxGeometry>
        </mxCell>
        <mxCell id="IGWFoSoRFDXE1sSzDMoK-28" value="Escrever &quot;O número é multiplo de 5." style="shape=parallelogram;perimeter=parallelogramPerimeter;whiteSpace=wrap;html=1;fixedSize=1;" parent="1" vertex="1">
          <mxGeometry x="640" y="135" width="160" height="60" as="geometry" />
        </mxCell>
        <mxCell id="jhZyTHYO_S4LA-YkZrnm-8" style="edgeStyle=orthogonalEdgeStyle;rounded=0;orthogonalLoop=1;jettySize=auto;html=1;exitX=1;exitY=0.5;exitDx=0;exitDy=0;entryX=0.5;entryY=0;entryDx=0;entryDy=0;" edge="1" parent="1" source="jhZyTHYO_S4LA-YkZrnm-5" target="7XiOjSr3929bPCMhmyme-4">
          <mxGeometry relative="1" as="geometry">
            <Array as="points">
              <mxPoint x="1020" y="105" />
              <mxPoint x="1020" y="-10" />
              <mxPoint x="215" y="-10" />
            </Array>
          </mxGeometry>
        </mxCell>
        <mxCell id="jhZyTHYO_S4LA-YkZrnm-5" value="Escreve&quot;O número não é multiplo de 3 nem de 5&quot;" style="shape=parallelogram;perimeter=parallelogramPerimeter;whiteSpace=wrap;html=1;fixedSize=1;" vertex="1" parent="1">
          <mxGeometry x="800" y="75" width="160" height="60" as="geometry" />
        </mxCell>
      </root>
    </mxGraphModel>
  </diagram>
</mxfile>
